<mxfile host="app.diagrams.net" modified="2024-03-08T13:02:04.853Z" agent="Mozilla/5.0 (Macintosh; Intel Mac OS X 10_15_7) AppleWebKit/537.36 (KHTML, like Gecko) Chrome/122.0.0.0 Safari/537.36" etag="PMCQy5AWJd3KOqoZmmmz" version="24.0.2" type="github">
  <diagram id="C5RBs43oDa-KdzZeNtuy" name="Page-1">
    <mxGraphModel dx="1908" dy="1378" grid="1" gridSize="10" guides="1" tooltips="1" connect="1" arrows="1" fold="1" page="1" pageScale="1" pageWidth="827" pageHeight="1169" math="0" shadow="0">
      <root>
        <mxCell id="WIyWlLk6GJQsqaUBKTNV-0" />
        <mxCell id="WIyWlLk6GJQsqaUBKTNV-1" parent="WIyWlLk6GJQsqaUBKTNV-0" />
        <mxCell id="VnchRvsKgucphbH2tO-m-4" value="Pool" style="swimlane;childLayout=stackLayout;resizeParent=1;resizeParentMax=0;horizontal=1;startSize=20;horizontalStack=0;html=1;" vertex="1" parent="WIyWlLk6GJQsqaUBKTNV-1">
          <mxGeometry width="2150" height="850" as="geometry" />
        </mxCell>
        <mxCell id="VnchRvsKgucphbH2tO-m-5" value="Customer" style="swimlane;startSize=20;horizontal=0;html=1;" vertex="1" parent="VnchRvsKgucphbH2tO-m-4">
          <mxGeometry y="20" width="2150" height="260" as="geometry" />
        </mxCell>
        <mxCell id="VnchRvsKgucphbH2tO-m-11" style="edgeStyle=orthogonalEdgeStyle;rounded=0;orthogonalLoop=1;jettySize=auto;html=1;" edge="1" parent="VnchRvsKgucphbH2tO-m-5" source="VnchRvsKgucphbH2tO-m-9" target="VnchRvsKgucphbH2tO-m-10">
          <mxGeometry relative="1" as="geometry" />
        </mxCell>
        <mxCell id="VnchRvsKgucphbH2tO-m-9" value="Customer initiates bill purchase" style="ellipse;whiteSpace=wrap;html=1;" vertex="1" parent="VnchRvsKgucphbH2tO-m-5">
          <mxGeometry x="40" y="30" width="120" height="60" as="geometry" />
        </mxCell>
        <mxCell id="VnchRvsKgucphbH2tO-m-12" style="edgeStyle=orthogonalEdgeStyle;rounded=0;orthogonalLoop=1;jettySize=auto;html=1;" edge="1" parent="VnchRvsKgucphbH2tO-m-5" source="VnchRvsKgucphbH2tO-m-10">
          <mxGeometry relative="1" as="geometry">
            <mxPoint x="260" y="140" as="targetPoint" />
          </mxGeometry>
        </mxCell>
        <mxCell id="VnchRvsKgucphbH2tO-m-10" value="Display T&amp;amp;C along with data sharing consent message" style="rounded=1;whiteSpace=wrap;html=1;" vertex="1" parent="VnchRvsKgucphbH2tO-m-5">
          <mxGeometry x="200" y="30" width="120" height="60" as="geometry" />
        </mxCell>
        <mxCell id="VnchRvsKgucphbH2tO-m-88" style="edgeStyle=orthogonalEdgeStyle;rounded=0;orthogonalLoop=1;jettySize=auto;html=1;entryX=1;entryY=0.5;entryDx=0;entryDy=0;" edge="1" parent="VnchRvsKgucphbH2tO-m-5" source="VnchRvsKgucphbH2tO-m-13" target="VnchRvsKgucphbH2tO-m-89">
          <mxGeometry relative="1" as="geometry">
            <mxPoint x="180" y="180" as="targetPoint" />
          </mxGeometry>
        </mxCell>
        <mxCell id="VnchRvsKgucphbH2tO-m-13" value="Consent given?" style="rhombus;whiteSpace=wrap;html=1;" vertex="1" parent="VnchRvsKgucphbH2tO-m-5">
          <mxGeometry x="220" y="140" width="80" height="80" as="geometry" />
        </mxCell>
        <mxCell id="VnchRvsKgucphbH2tO-m-20" value="Customer selects required biller" style="rounded=1;whiteSpace=wrap;html=1;" vertex="1" parent="VnchRvsKgucphbH2tO-m-5">
          <mxGeometry x="440" y="130" width="120" height="60" as="geometry" />
        </mxCell>
        <mxCell id="VnchRvsKgucphbH2tO-m-24" value="Customer selects required product and enters required data for customer validation when necessary" style="rounded=1;whiteSpace=wrap;html=1;" vertex="1" parent="VnchRvsKgucphbH2tO-m-5">
          <mxGeometry x="680" y="110" width="120" height="100" as="geometry" />
        </mxCell>
        <mxCell id="VnchRvsKgucphbH2tO-m-30" value="Is transaction cofnirmed?" style="rhombus;whiteSpace=wrap;html=1;" vertex="1" parent="VnchRvsKgucphbH2tO-m-5">
          <mxGeometry x="1100" y="100" width="80" height="80" as="geometry" />
        </mxCell>
        <mxCell id="VnchRvsKgucphbH2tO-m-68" value="Display transaction success message" style="rounded=1;whiteSpace=wrap;html=1;" vertex="1" parent="VnchRvsKgucphbH2tO-m-5">
          <mxGeometry x="1940" y="110" width="120" height="60" as="geometry" />
        </mxCell>
        <mxCell id="VnchRvsKgucphbH2tO-m-84" value="&lt;b&gt;&lt;font style=&quot;font-size: 20px;&quot;&gt;S&lt;/font&gt;&lt;/b&gt;" style="ellipse;whiteSpace=wrap;html=1;fillColor=#65f207;" vertex="1" parent="VnchRvsKgucphbH2tO-m-5">
          <mxGeometry x="85" y="90" width="30" height="30" as="geometry" />
        </mxCell>
        <mxCell id="VnchRvsKgucphbH2tO-m-87" value="&lt;span style=&quot;font-size: 20px;&quot;&gt;&lt;b&gt;E&lt;/b&gt;&lt;/span&gt;" style="ellipse;whiteSpace=wrap;html=1;fillColor=#FF5745;gradientColor=none;" vertex="1" parent="VnchRvsKgucphbH2tO-m-5">
          <mxGeometry x="25" y="165" width="30" height="30" as="geometry" />
        </mxCell>
        <mxCell id="VnchRvsKgucphbH2tO-m-89" value="Display transaction failed message" style="rounded=1;whiteSpace=wrap;html=1;" vertex="1" parent="VnchRvsKgucphbH2tO-m-5">
          <mxGeometry x="55" y="150" width="120" height="60" as="geometry" />
        </mxCell>
        <mxCell id="VnchRvsKgucphbH2tO-m-91" value="YES" style="text;html=1;align=center;verticalAlign=middle;resizable=0;points=[];autosize=1;strokeColor=none;fillColor=none;" vertex="1" parent="VnchRvsKgucphbH2tO-m-5">
          <mxGeometry x="250" y="230" width="50" height="30" as="geometry" />
        </mxCell>
        <mxCell id="VnchRvsKgucphbH2tO-m-6" value="PaylaterHUB" style="swimlane;startSize=20;horizontal=0;html=1;" vertex="1" parent="VnchRvsKgucphbH2tO-m-4">
          <mxGeometry y="280" width="2150" height="320" as="geometry" />
        </mxCell>
        <mxCell id="VnchRvsKgucphbH2tO-m-15" value="Request for all available billers" style="rounded=1;whiteSpace=wrap;html=1;" vertex="1" parent="VnchRvsKgucphbH2tO-m-6">
          <mxGeometry x="200" y="130" width="120" height="60" as="geometry" />
        </mxCell>
        <mxCell id="VnchRvsKgucphbH2tO-m-18" value="Display relevant billers to customer" style="rounded=1;whiteSpace=wrap;html=1;" vertex="1" parent="VnchRvsKgucphbH2tO-m-6">
          <mxGeometry x="360" y="130" width="120" height="60" as="geometry" />
        </mxCell>
        <mxCell id="VnchRvsKgucphbH2tO-m-22" value="Make request for chosen biller&#39;s products" style="rounded=1;whiteSpace=wrap;html=1;" vertex="1" parent="VnchRvsKgucphbH2tO-m-6">
          <mxGeometry x="520" y="130" width="120" height="60" as="geometry" />
        </mxCell>
        <mxCell id="VnchRvsKgucphbH2tO-m-28" value="Display validated data and transsaction summary to customer for confirmation" style="rounded=1;whiteSpace=wrap;html=1;" vertex="1" parent="VnchRvsKgucphbH2tO-m-6">
          <mxGeometry x="1000" y="130" width="120" height="60" as="geometry" />
        </mxCell>
        <mxCell id="VnchRvsKgucphbH2tO-m-31" value="Check customer&#39;s Inflight Eligibility" style="rounded=1;whiteSpace=wrap;html=1;" vertex="1" parent="VnchRvsKgucphbH2tO-m-6">
          <mxGeometry x="1160" y="130" width="120" height="60" as="geometry" />
        </mxCell>
        <mxCell id="VnchRvsKgucphbH2tO-m-55" style="edgeStyle=orthogonalEdgeStyle;rounded=0;orthogonalLoop=1;jettySize=auto;html=1;entryX=0;entryY=0.5;entryDx=0;entryDy=0;" edge="1" parent="VnchRvsKgucphbH2tO-m-6" source="VnchRvsKgucphbH2tO-m-35" target="VnchRvsKgucphbH2tO-m-39">
          <mxGeometry relative="1" as="geometry" />
        </mxCell>
        <mxCell id="VnchRvsKgucphbH2tO-m-35" value="Set up inflight mandate" style="rounded=1;whiteSpace=wrap;html=1;" vertex="1" parent="VnchRvsKgucphbH2tO-m-6">
          <mxGeometry x="1400" y="50" width="120" height="60" as="geometry" />
        </mxCell>
        <mxCell id="VnchRvsKgucphbH2tO-m-61" style="edgeStyle=orthogonalEdgeStyle;rounded=0;orthogonalLoop=1;jettySize=auto;html=1;entryX=0;entryY=0.5;entryDx=0;entryDy=0;" edge="1" parent="VnchRvsKgucphbH2tO-m-6" source="VnchRvsKgucphbH2tO-m-39" target="VnchRvsKgucphbH2tO-m-62">
          <mxGeometry relative="1" as="geometry">
            <mxPoint x="1690" y="80" as="targetPoint" />
          </mxGeometry>
        </mxCell>
        <mxCell id="VnchRvsKgucphbH2tO-m-39" value="Is setup successful?" style="rhombus;whiteSpace=wrap;html=1;" vertex="1" parent="VnchRvsKgucphbH2tO-m-6">
          <mxGeometry x="1580" y="40" width="80" height="80" as="geometry" />
        </mxCell>
        <mxCell id="VnchRvsKgucphbH2tO-m-40" value="Credit check&lt;div&gt;(unknown provider)&lt;/div&gt;" style="rounded=1;whiteSpace=wrap;html=1;" vertex="1" parent="VnchRvsKgucphbH2tO-m-6">
          <mxGeometry x="1400" y="210" width="120" height="60" as="geometry" />
        </mxCell>
        <mxCell id="VnchRvsKgucphbH2tO-m-62" value="Disburse funds to wallet with Remita" style="rounded=1;whiteSpace=wrap;html=1;" vertex="1" parent="VnchRvsKgucphbH2tO-m-6">
          <mxGeometry x="1700" y="50" width="120" height="60" as="geometry" />
        </mxCell>
        <mxCell id="VnchRvsKgucphbH2tO-m-94" value="NO" style="text;html=1;align=center;verticalAlign=middle;resizable=0;points=[];autosize=1;strokeColor=none;fillColor=none;" vertex="1" parent="VnchRvsKgucphbH2tO-m-6">
          <mxGeometry x="1360" y="210" width="40" height="30" as="geometry" />
        </mxCell>
        <mxCell id="VnchRvsKgucphbH2tO-m-93" value="YES" style="text;html=1;align=center;verticalAlign=middle;resizable=0;points=[];autosize=1;strokeColor=none;fillColor=none;" vertex="1" parent="VnchRvsKgucphbH2tO-m-6">
          <mxGeometry x="1355" y="50" width="50" height="30" as="geometry" />
        </mxCell>
        <mxCell id="VnchRvsKgucphbH2tO-m-95" value="YES" style="text;html=1;align=center;verticalAlign=middle;resizable=0;points=[];autosize=1;strokeColor=none;fillColor=none;" vertex="1" parent="VnchRvsKgucphbH2tO-m-6">
          <mxGeometry x="1654" y="50" width="50" height="30" as="geometry" />
        </mxCell>
        <mxCell id="VnchRvsKgucphbH2tO-m-96" value="YES" style="text;html=1;align=center;verticalAlign=middle;resizable=0;points=[];autosize=1;strokeColor=none;fillColor=none;" vertex="1" parent="VnchRvsKgucphbH2tO-m-6">
          <mxGeometry x="2000" y="58" width="50" height="30" as="geometry" />
        </mxCell>
        <mxCell id="VnchRvsKgucphbH2tO-m-16" style="edgeStyle=orthogonalEdgeStyle;rounded=0;orthogonalLoop=1;jettySize=auto;html=1;entryX=0;entryY=0.5;entryDx=0;entryDy=0;" edge="1" parent="VnchRvsKgucphbH2tO-m-4" source="VnchRvsKgucphbH2tO-m-15" target="VnchRvsKgucphbH2tO-m-17">
          <mxGeometry relative="1" as="geometry">
            <mxPoint x="260" y="440" as="targetPoint" />
          </mxGeometry>
        </mxCell>
        <mxCell id="VnchRvsKgucphbH2tO-m-19" style="edgeStyle=orthogonalEdgeStyle;rounded=0;orthogonalLoop=1;jettySize=auto;html=1;exitX=1;exitY=0.5;exitDx=0;exitDy=0;" edge="1" parent="VnchRvsKgucphbH2tO-m-4" source="VnchRvsKgucphbH2tO-m-17" target="VnchRvsKgucphbH2tO-m-18">
          <mxGeometry relative="1" as="geometry">
            <mxPoint x="400" y="480" as="sourcePoint" />
            <Array as="points">
              <mxPoint x="420" y="670" />
            </Array>
          </mxGeometry>
        </mxCell>
        <mxCell id="VnchRvsKgucphbH2tO-m-29" style="edgeStyle=orthogonalEdgeStyle;rounded=0;orthogonalLoop=1;jettySize=auto;html=1;entryX=0;entryY=0.5;entryDx=0;entryDy=0;" edge="1" parent="VnchRvsKgucphbH2tO-m-4" source="VnchRvsKgucphbH2tO-m-28" target="VnchRvsKgucphbH2tO-m-30">
          <mxGeometry relative="1" as="geometry">
            <mxPoint x="1060" y="210" as="targetPoint" />
          </mxGeometry>
        </mxCell>
        <mxCell id="VnchRvsKgucphbH2tO-m-53" style="edgeStyle=orthogonalEdgeStyle;rounded=0;orthogonalLoop=1;jettySize=auto;html=1;entryX=0.5;entryY=1;entryDx=0;entryDy=0;exitX=1;exitY=0.5;exitDx=0;exitDy=0;" edge="1" parent="VnchRvsKgucphbH2tO-m-4" source="VnchRvsKgucphbH2tO-m-36" target="VnchRvsKgucphbH2tO-m-39">
          <mxGeometry relative="1" as="geometry">
            <mxPoint x="1610" y="670" as="sourcePoint" />
            <Array as="points">
              <mxPoint x="1620" y="670" />
            </Array>
          </mxGeometry>
        </mxCell>
        <mxCell id="VnchRvsKgucphbH2tO-m-41" style="edgeStyle=orthogonalEdgeStyle;rounded=0;orthogonalLoop=1;jettySize=auto;html=1;entryX=0;entryY=0.5;entryDx=0;entryDy=0;" edge="1" parent="VnchRvsKgucphbH2tO-m-4" source="VnchRvsKgucphbH2tO-m-40" target="VnchRvsKgucphbH2tO-m-36">
          <mxGeometry relative="1" as="geometry">
            <mxPoint x="1460" y="640" as="targetPoint" />
          </mxGeometry>
        </mxCell>
        <mxCell id="VnchRvsKgucphbH2tO-m-64" style="edgeStyle=orthogonalEdgeStyle;rounded=0;orthogonalLoop=1;jettySize=auto;html=1;entryX=0;entryY=0.5;entryDx=0;entryDy=0;" edge="1" parent="VnchRvsKgucphbH2tO-m-4" source="VnchRvsKgucphbH2tO-m-62" target="VnchRvsKgucphbH2tO-m-63">
          <mxGeometry relative="1" as="geometry" />
        </mxCell>
        <mxCell id="VnchRvsKgucphbH2tO-m-14" style="edgeStyle=orthogonalEdgeStyle;rounded=0;orthogonalLoop=1;jettySize=auto;html=1;entryX=0.5;entryY=0;entryDx=0;entryDy=0;" edge="1" parent="VnchRvsKgucphbH2tO-m-4" source="VnchRvsKgucphbH2tO-m-13" target="VnchRvsKgucphbH2tO-m-15">
          <mxGeometry relative="1" as="geometry">
            <mxPoint x="260" y="320" as="targetPoint" />
          </mxGeometry>
        </mxCell>
        <mxCell id="VnchRvsKgucphbH2tO-m-69" style="edgeStyle=orthogonalEdgeStyle;rounded=0;orthogonalLoop=1;jettySize=auto;html=1;entryX=0;entryY=0.5;entryDx=0;entryDy=0;" edge="1" parent="VnchRvsKgucphbH2tO-m-4" source="VnchRvsKgucphbH2tO-m-18" target="VnchRvsKgucphbH2tO-m-20">
          <mxGeometry relative="1" as="geometry" />
        </mxCell>
        <mxCell id="VnchRvsKgucphbH2tO-m-70" style="edgeStyle=orthogonalEdgeStyle;rounded=0;orthogonalLoop=1;jettySize=auto;html=1;entryX=0.5;entryY=0;entryDx=0;entryDy=0;" edge="1" parent="VnchRvsKgucphbH2tO-m-4" source="VnchRvsKgucphbH2tO-m-20" target="VnchRvsKgucphbH2tO-m-22">
          <mxGeometry relative="1" as="geometry">
            <Array as="points">
              <mxPoint x="580" y="180" />
            </Array>
          </mxGeometry>
        </mxCell>
        <mxCell id="VnchRvsKgucphbH2tO-m-71" style="edgeStyle=orthogonalEdgeStyle;rounded=0;orthogonalLoop=1;jettySize=auto;html=1;entryX=0;entryY=0.5;entryDx=0;entryDy=0;" edge="1" parent="VnchRvsKgucphbH2tO-m-4" source="VnchRvsKgucphbH2tO-m-22" target="VnchRvsKgucphbH2tO-m-21">
          <mxGeometry relative="1" as="geometry" />
        </mxCell>
        <mxCell id="VnchRvsKgucphbH2tO-m-77" style="edgeStyle=orthogonalEdgeStyle;rounded=0;orthogonalLoop=1;jettySize=auto;html=1;entryX=0.5;entryY=1;entryDx=0;entryDy=0;" edge="1" parent="VnchRvsKgucphbH2tO-m-4" source="VnchRvsKgucphbH2tO-m-27" target="VnchRvsKgucphbH2tO-m-28">
          <mxGeometry relative="1" as="geometry" />
        </mxCell>
        <mxCell id="VnchRvsKgucphbH2tO-m-78" style="edgeStyle=orthogonalEdgeStyle;rounded=0;orthogonalLoop=1;jettySize=auto;html=1;entryX=0.5;entryY=0;entryDx=0;entryDy=0;" edge="1" parent="VnchRvsKgucphbH2tO-m-4" source="VnchRvsKgucphbH2tO-m-31" target="VnchRvsKgucphbH2tO-m-33">
          <mxGeometry relative="1" as="geometry" />
        </mxCell>
        <mxCell id="VnchRvsKgucphbH2tO-m-83" style="edgeStyle=orthogonalEdgeStyle;rounded=0;orthogonalLoop=1;jettySize=auto;html=1;entryX=0.5;entryY=0;entryDx=0;entryDy=0;" edge="1" parent="VnchRvsKgucphbH2tO-m-4" source="VnchRvsKgucphbH2tO-m-30" target="VnchRvsKgucphbH2tO-m-31">
          <mxGeometry relative="1" as="geometry">
            <Array as="points">
              <mxPoint x="1220" y="160" />
            </Array>
          </mxGeometry>
        </mxCell>
        <mxCell id="VnchRvsKgucphbH2tO-m-7" value="3rd Party Providers" style="swimlane;startSize=20;horizontal=0;html=1;" vertex="1" parent="VnchRvsKgucphbH2tO-m-4">
          <mxGeometry y="600" width="2150" height="250" as="geometry" />
        </mxCell>
        <mxCell id="VnchRvsKgucphbH2tO-m-17" value="Return available billers" style="rounded=1;whiteSpace=wrap;html=1;" vertex="1" parent="VnchRvsKgucphbH2tO-m-7">
          <mxGeometry x="280" y="40" width="120" height="60" as="geometry" />
        </mxCell>
        <mxCell id="VnchRvsKgucphbH2tO-m-21" value="Return all products mapped to biller" style="rounded=1;whiteSpace=wrap;html=1;" vertex="1" parent="VnchRvsKgucphbH2tO-m-7">
          <mxGeometry x="600" y="40" width="120" height="60" as="geometry" />
        </mxCell>
        <mxCell id="VnchRvsKgucphbH2tO-m-27" value="Return validated and transaction details." style="rounded=1;whiteSpace=wrap;html=1;" vertex="1" parent="VnchRvsKgucphbH2tO-m-7">
          <mxGeometry x="1000" y="40" width="120" height="60" as="geometry" />
        </mxCell>
        <mxCell id="VnchRvsKgucphbH2tO-m-81" style="edgeStyle=orthogonalEdgeStyle;rounded=0;orthogonalLoop=1;jettySize=auto;html=1;entryX=0.5;entryY=0;entryDx=0;entryDy=0;" edge="1" parent="VnchRvsKgucphbH2tO-m-7" source="VnchRvsKgucphbH2tO-m-26" target="VnchRvsKgucphbH2tO-m-80">
          <mxGeometry relative="1" as="geometry" />
        </mxCell>
        <mxCell id="VnchRvsKgucphbH2tO-m-99" value="" style="edgeStyle=orthogonalEdgeStyle;rounded=0;orthogonalLoop=1;jettySize=auto;html=1;" edge="1" parent="VnchRvsKgucphbH2tO-m-7" source="VnchRvsKgucphbH2tO-m-26" target="VnchRvsKgucphbH2tO-m-98">
          <mxGeometry relative="1" as="geometry" />
        </mxCell>
        <mxCell id="VnchRvsKgucphbH2tO-m-26" value="Is validated" style="rhombus;whiteSpace=wrap;html=1;" vertex="1" parent="VnchRvsKgucphbH2tO-m-7">
          <mxGeometry x="860" y="30" width="80" height="80" as="geometry" />
        </mxCell>
        <mxCell id="VnchRvsKgucphbH2tO-m-33" value="Return response" style="rounded=1;whiteSpace=wrap;html=1;" vertex="1" parent="VnchRvsKgucphbH2tO-m-7">
          <mxGeometry x="1160" y="40" width="120" height="60" as="geometry" />
        </mxCell>
        <mxCell id="VnchRvsKgucphbH2tO-m-36" value="Set up Direct Debit mandate (processor yet to be decided)" style="rounded=1;whiteSpace=wrap;html=1;" vertex="1" parent="VnchRvsKgucphbH2tO-m-7">
          <mxGeometry x="1480" y="40" width="120" height="60" as="geometry" />
        </mxCell>
        <mxCell id="VnchRvsKgucphbH2tO-m-63" value="Generate transaction and Process bill transaction in favour of customer" style="rounded=1;whiteSpace=wrap;html=1;" vertex="1" parent="VnchRvsKgucphbH2tO-m-7">
          <mxGeometry x="1860" y="40" width="120" height="60" as="geometry" />
        </mxCell>
        <mxCell id="VnchRvsKgucphbH2tO-m-82" style="edgeStyle=orthogonalEdgeStyle;rounded=0;orthogonalLoop=1;jettySize=auto;html=1;entryX=0.5;entryY=1;entryDx=0;entryDy=0;" edge="1" parent="VnchRvsKgucphbH2tO-m-7" source="VnchRvsKgucphbH2tO-m-80" target="VnchRvsKgucphbH2tO-m-27">
          <mxGeometry relative="1" as="geometry" />
        </mxCell>
        <mxCell id="VnchRvsKgucphbH2tO-m-80" value="Generate transaction" style="rounded=1;whiteSpace=wrap;html=1;" vertex="1" parent="VnchRvsKgucphbH2tO-m-7">
          <mxGeometry x="840" y="160" width="120" height="60" as="geometry" />
        </mxCell>
        <mxCell id="VnchRvsKgucphbH2tO-m-92" value="YES" style="text;html=1;align=center;verticalAlign=middle;resizable=0;points=[];autosize=1;strokeColor=none;fillColor=none;" vertex="1" parent="VnchRvsKgucphbH2tO-m-7">
          <mxGeometry x="900" y="120" width="50" height="30" as="geometry" />
        </mxCell>
        <mxCell id="VnchRvsKgucphbH2tO-m-98" value="&lt;b&gt;&lt;font style=&quot;font-size: 20px;&quot;&gt;R&lt;/font&gt;&lt;/b&gt;" style="ellipse;whiteSpace=wrap;html=1;fillColor=#ffed29;" vertex="1" parent="VnchRvsKgucphbH2tO-m-7">
          <mxGeometry x="800" y="56.5" width="27" height="27" as="geometry" />
        </mxCell>
        <mxCell id="VnchRvsKgucphbH2tO-m-100" value="NO" style="text;html=1;align=center;verticalAlign=middle;resizable=0;points=[];autosize=1;strokeColor=none;fillColor=none;" vertex="1" parent="VnchRvsKgucphbH2tO-m-7">
          <mxGeometry x="827" y="40" width="40" height="30" as="geometry" />
        </mxCell>
        <mxCell id="VnchRvsKgucphbH2tO-m-73" style="edgeStyle=orthogonalEdgeStyle;rounded=0;orthogonalLoop=1;jettySize=auto;html=1;entryX=0.5;entryY=1;entryDx=0;entryDy=0;" edge="1" parent="WIyWlLk6GJQsqaUBKTNV-1" source="VnchRvsKgucphbH2tO-m-23" target="VnchRvsKgucphbH2tO-m-24">
          <mxGeometry relative="1" as="geometry" />
        </mxCell>
        <mxCell id="VnchRvsKgucphbH2tO-m-23" value="Display products to the customer" style="rounded=1;whiteSpace=wrap;html=1;" vertex="1" parent="WIyWlLk6GJQsqaUBKTNV-1">
          <mxGeometry x="680" y="410" width="120" height="60" as="geometry" />
        </mxCell>
        <mxCell id="VnchRvsKgucphbH2tO-m-75" style="edgeStyle=orthogonalEdgeStyle;rounded=0;orthogonalLoop=1;jettySize=auto;html=1;entryX=0.5;entryY=0;entryDx=0;entryDy=0;" edge="1" parent="WIyWlLk6GJQsqaUBKTNV-1" source="VnchRvsKgucphbH2tO-m-25" target="VnchRvsKgucphbH2tO-m-26">
          <mxGeometry relative="1" as="geometry" />
        </mxCell>
        <mxCell id="VnchRvsKgucphbH2tO-m-25" value="Send customer data for validation and transaction generation" style="rounded=1;whiteSpace=wrap;html=1;" vertex="1" parent="WIyWlLk6GJQsqaUBKTNV-1">
          <mxGeometry x="840" y="410" width="120" height="60" as="geometry" />
        </mxCell>
        <mxCell id="VnchRvsKgucphbH2tO-m-56" style="edgeStyle=orthogonalEdgeStyle;rounded=0;orthogonalLoop=1;jettySize=auto;html=1;entryX=0;entryY=0.5;entryDx=0;entryDy=0;" edge="1" parent="WIyWlLk6GJQsqaUBKTNV-1" source="VnchRvsKgucphbH2tO-m-34" target="VnchRvsKgucphbH2tO-m-35">
          <mxGeometry relative="1" as="geometry" />
        </mxCell>
        <mxCell id="VnchRvsKgucphbH2tO-m-57" style="edgeStyle=orthogonalEdgeStyle;rounded=0;orthogonalLoop=1;jettySize=auto;html=1;entryX=0;entryY=0.5;entryDx=0;entryDy=0;" edge="1" parent="WIyWlLk6GJQsqaUBKTNV-1" source="VnchRvsKgucphbH2tO-m-34" target="VnchRvsKgucphbH2tO-m-40">
          <mxGeometry relative="1" as="geometry" />
        </mxCell>
        <mxCell id="VnchRvsKgucphbH2tO-m-34" value="Is customer eligible" style="rhombus;whiteSpace=wrap;html=1;" vertex="1" parent="WIyWlLk6GJQsqaUBKTNV-1">
          <mxGeometry x="1320" y="400" width="80" height="80" as="geometry" />
        </mxCell>
        <mxCell id="VnchRvsKgucphbH2tO-m-67" style="edgeStyle=orthogonalEdgeStyle;rounded=0;orthogonalLoop=1;jettySize=auto;html=1;entryX=0.5;entryY=1;entryDx=0;entryDy=0;" edge="1" parent="WIyWlLk6GJQsqaUBKTNV-1" source="VnchRvsKgucphbH2tO-m-65" target="VnchRvsKgucphbH2tO-m-68">
          <mxGeometry relative="1" as="geometry">
            <mxPoint x="2000" y="210" as="targetPoint" />
          </mxGeometry>
        </mxCell>
        <mxCell id="VnchRvsKgucphbH2tO-m-65" value="Was transaction successfully processed?" style="rhombus;whiteSpace=wrap;html=1;" vertex="1" parent="WIyWlLk6GJQsqaUBKTNV-1">
          <mxGeometry x="1960" y="400" width="80" height="80" as="geometry" />
        </mxCell>
        <mxCell id="VnchRvsKgucphbH2tO-m-66" style="edgeStyle=orthogonalEdgeStyle;rounded=0;orthogonalLoop=1;jettySize=auto;html=1;entryX=0.5;entryY=1;entryDx=0;entryDy=0;" edge="1" parent="WIyWlLk6GJQsqaUBKTNV-1" source="VnchRvsKgucphbH2tO-m-63" target="VnchRvsKgucphbH2tO-m-65">
          <mxGeometry relative="1" as="geometry">
            <Array as="points">
              <mxPoint x="2000" y="670" />
            </Array>
          </mxGeometry>
        </mxCell>
        <mxCell id="VnchRvsKgucphbH2tO-m-72" style="edgeStyle=orthogonalEdgeStyle;rounded=0;orthogonalLoop=1;jettySize=auto;html=1;entryX=0.5;entryY=1;entryDx=0;entryDy=0;" edge="1" parent="WIyWlLk6GJQsqaUBKTNV-1" source="VnchRvsKgucphbH2tO-m-21" target="VnchRvsKgucphbH2tO-m-23">
          <mxGeometry relative="1" as="geometry">
            <Array as="points">
              <mxPoint x="740" y="670" />
            </Array>
          </mxGeometry>
        </mxCell>
        <mxCell id="VnchRvsKgucphbH2tO-m-74" style="edgeStyle=orthogonalEdgeStyle;rounded=0;orthogonalLoop=1;jettySize=auto;html=1;entryX=0.5;entryY=0;entryDx=0;entryDy=0;" edge="1" parent="WIyWlLk6GJQsqaUBKTNV-1" source="VnchRvsKgucphbH2tO-m-24" target="VnchRvsKgucphbH2tO-m-25">
          <mxGeometry relative="1" as="geometry" />
        </mxCell>
        <mxCell id="VnchRvsKgucphbH2tO-m-79" style="edgeStyle=orthogonalEdgeStyle;rounded=0;orthogonalLoop=1;jettySize=auto;html=1;entryX=0;entryY=0.5;entryDx=0;entryDy=0;" edge="1" parent="WIyWlLk6GJQsqaUBKTNV-1" source="VnchRvsKgucphbH2tO-m-33" target="VnchRvsKgucphbH2tO-m-34">
          <mxGeometry relative="1" as="geometry" />
        </mxCell>
        <mxCell id="VnchRvsKgucphbH2tO-m-90" value="NO" style="text;html=1;align=center;verticalAlign=middle;resizable=0;points=[];autosize=1;strokeColor=none;fillColor=none;" vertex="1" parent="WIyWlLk6GJQsqaUBKTNV-1">
          <mxGeometry x="190" y="178" width="40" height="30" as="geometry" />
        </mxCell>
      </root>
    </mxGraphModel>
  </diagram>
</mxfile>
